# xmcd
#
# Track frame offsets:
#	150
#	15060
#	27315
#	40450
#	53145
#	65840
#	78900
#	88310
#	99275
#	113015
#	124725
#	138905
#	154940
#	173225
#	189335
#
# Disc length: 2893 seconds
#
# Revision: 0
# Processed by: cddbd v1.4PL0 Copyright (c) Steve Scherf et al.
# Submitted via: dBpowerAMP V4.0
#
DISCID=bc0b4b0f
DTITLE=Wandeko and Daisy - Wandeko and Daisy em Camboiriu
DYEAR=1990
DGENRE=Paródia
TTITLE0=Mate o Cantor
TTITLE1=Conformado
TTITLE2=Gordinho Guth Guth
TTITLE3=Seu Amor é Meu
TTITLE4=Ainda Ontem Chorei de Saudade
TTITLE5=Amarga Traição
TTITLE6=Meu Amor Brigou comigo
TTITLE7=Baita Cuia
TTITLE8=Gangorra
TTITLE9=Não e Não
TTITLE10=Melô do Mão de Vaca
TTITLE11=Êxodo Rural
TTITLE12=Garçon
TTITLE13=Masculino e Feminino
TTITLE14=Corinthians e Palmeiras (Bom de bola)
EXTD=MFP 2002
EXTT0=
EXTT1=
EXTT2=
EXTT3=
EXTT4=
EXTT5=
EXTT6=
EXTT7=
EXTT8=
EXTT9=
EXTT10=
EXTT11=
EXTT12=
EXTT13=
EXTT14=
PLAYORDER=
